<mxfile host="app.diagrams.net" modified="2022-05-04T05:00:00.192Z" agent="5.0 (Macintosh; Intel Mac OS X 10_15_7) AppleWebKit/537.36 (KHTML, like Gecko) Chrome/100.0.4896.127 Safari/537.36" etag="asI1iD0mIp0OHKHRLZk_" version="17.4.6" type="github">
  <diagram id="uyyuLeqQT3iIRmIX0oWP" name="Page-1">
    <mxGraphModel dx="2156" dy="1075" grid="1" gridSize="10" guides="1" tooltips="1" connect="1" arrows="1" fold="1" page="1" pageScale="1" pageWidth="827" pageHeight="1169" math="0" shadow="0">
      <root>
        <mxCell id="0" />
        <mxCell id="1" parent="0" />
        <mxCell id="dOx9YedeJa6BNykdINiB-3" value="&lt;p class=&quot;MsoNormal&quot; style=&quot;margin: 0cm ; font-size: 12pt ; line-height: 12pt&quot;&gt;&lt;br&gt;&lt;/p&gt;" style="text;html=1;align=center;verticalAlign=middle;resizable=0;points=[];autosize=1;strokeColor=none;" parent="1" vertex="1">
          <mxGeometry x="361" y="360" width="20" height="20" as="geometry" />
        </mxCell>
        <mxCell id="b36G0uCOuv9IbHhVNSIA-12" style="edgeStyle=orthogonalEdgeStyle;rounded=0;orthogonalLoop=1;jettySize=auto;html=1;exitX=0.5;exitY=0;exitDx=0;exitDy=0;entryX=0.5;entryY=1;entryDx=0;entryDy=0;" parent="1" source="b36G0uCOuv9IbHhVNSIA-1" target="b36G0uCOuv9IbHhVNSIA-6" edge="1">
          <mxGeometry relative="1" as="geometry" />
        </mxCell>
        <mxCell id="b36G0uCOuv9IbHhVNSIA-1" value="&lt;font style=&quot;font-size: 18px&quot;&gt;CRF&lt;/font&gt;" style="rounded=1;whiteSpace=wrap;html=1;fillColor=#f5f5f5;fontColor=#333333;strokeColor=#666666;" parent="1" vertex="1">
          <mxGeometry x="183.5" y="280" width="120" height="60" as="geometry" />
        </mxCell>
        <mxCell id="b36G0uCOuv9IbHhVNSIA-13" style="edgeStyle=orthogonalEdgeStyle;rounded=0;orthogonalLoop=1;jettySize=auto;html=1;exitX=0.5;exitY=0;exitDx=0;exitDy=0;entryX=0.5;entryY=1;entryDx=0;entryDy=0;" parent="1" source="b36G0uCOuv9IbHhVNSIA-2" target="b36G0uCOuv9IbHhVNSIA-7" edge="1">
          <mxGeometry relative="1" as="geometry" />
        </mxCell>
        <mxCell id="b36G0uCOuv9IbHhVNSIA-2" value="&lt;font style=&quot;font-size: 18px&quot;&gt;CRF&lt;/font&gt;" style="rounded=1;whiteSpace=wrap;html=1;fillColor=#f5f5f5;fontColor=#333333;strokeColor=#666666;" parent="1" vertex="1">
          <mxGeometry x="528.5" y="280" width="120" height="60" as="geometry" />
        </mxCell>
        <mxCell id="b36G0uCOuv9IbHhVNSIA-19" style="edgeStyle=orthogonalEdgeStyle;rounded=0;orthogonalLoop=1;jettySize=auto;html=1;exitX=0.5;exitY=0;exitDx=0;exitDy=0;entryX=0.5;entryY=1;entryDx=0;entryDy=0;" parent="1" source="b36G0uCOuv9IbHhVNSIA-3" target="b36G0uCOuv9IbHhVNSIA-14" edge="1">
          <mxGeometry relative="1" as="geometry" />
        </mxCell>
        <mxCell id="b36G0uCOuv9IbHhVNSIA-3" value="&lt;font style=&quot;font-size: 18px&quot;&gt;Attention Layer&lt;/font&gt;" style="rounded=0;whiteSpace=wrap;html=1;fillColor=#f5f5f5;fontColor=#333333;strokeColor=#666666;" parent="1" vertex="1">
          <mxGeometry x="326" y="470" width="180" height="50" as="geometry" />
        </mxCell>
        <mxCell id="b36G0uCOuv9IbHhVNSIA-17" style="edgeStyle=orthogonalEdgeStyle;rounded=0;orthogonalLoop=1;jettySize=auto;html=1;exitX=0.5;exitY=0;exitDx=0;exitDy=0;entryX=0.5;entryY=1;entryDx=0;entryDy=0;" parent="1" source="b36G0uCOuv9IbHhVNSIA-4" target="b36G0uCOuv9IbHhVNSIA-3" edge="1">
          <mxGeometry relative="1" as="geometry" />
        </mxCell>
        <mxCell id="b36G0uCOuv9IbHhVNSIA-4" value="" style="rounded=1;whiteSpace=wrap;html=1;fillColor=#f5f5f5;fontColor=#333333;strokeColor=#666666;" parent="1" vertex="1">
          <mxGeometry x="111" y="610" width="270" height="140" as="geometry" />
        </mxCell>
        <mxCell id="b36G0uCOuv9IbHhVNSIA-24" style="edgeStyle=orthogonalEdgeStyle;rounded=0;orthogonalLoop=1;jettySize=auto;html=1;exitX=0.5;exitY=0;exitDx=0;exitDy=0;entryX=0.5;entryY=1;entryDx=0;entryDy=0;" parent="1" source="b36G0uCOuv9IbHhVNSIA-5" target="b36G0uCOuv9IbHhVNSIA-3" edge="1">
          <mxGeometry relative="1" as="geometry" />
        </mxCell>
        <mxCell id="b36G0uCOuv9IbHhVNSIA-5" value="" style="rounded=1;whiteSpace=wrap;html=1;fillColor=#f5f5f5;fontColor=#333333;strokeColor=#666666;" parent="1" vertex="1">
          <mxGeometry x="456" y="610" width="260" height="140" as="geometry" />
        </mxCell>
        <mxCell id="b36G0uCOuv9IbHhVNSIA-6" value="&lt;font style=&quot;font-size: 18px&quot;&gt;Y1, Y2, ... , Yn&lt;/font&gt;" style="rounded=0;whiteSpace=wrap;html=1;fillColor=#f5f5f5;fontColor=#333333;strokeColor=#666666;" parent="1" vertex="1">
          <mxGeometry x="169" y="180" width="147.5" height="50" as="geometry" />
        </mxCell>
        <mxCell id="b36G0uCOuv9IbHhVNSIA-7" value="&lt;font style=&quot;font-size: 18px&quot;&gt;Y1, Y2, ... , Yn&lt;/font&gt;" style="rounded=0;whiteSpace=wrap;html=1;fillColor=#f5f5f5;fontColor=#333333;strokeColor=#666666;" parent="1" vertex="1">
          <mxGeometry x="517" y="180" width="142.5" height="50" as="geometry" />
        </mxCell>
        <mxCell id="b36G0uCOuv9IbHhVNSIA-20" style="edgeStyle=orthogonalEdgeStyle;rounded=0;orthogonalLoop=1;jettySize=auto;html=1;exitX=0.5;exitY=0;exitDx=0;exitDy=0;entryX=0.5;entryY=1;entryDx=0;entryDy=0;" parent="1" source="b36G0uCOuv9IbHhVNSIA-8" target="b36G0uCOuv9IbHhVNSIA-4" edge="1">
          <mxGeometry relative="1" as="geometry" />
        </mxCell>
        <mxCell id="b36G0uCOuv9IbHhVNSIA-8" value="&lt;font style=&quot;font-size: 18px&quot;&gt;BERT&lt;/font&gt;" style="rounded=1;whiteSpace=wrap;html=1;fillColor=#dae8fc;strokeColor=#6c8ebf;" parent="1" vertex="1">
          <mxGeometry x="191" y="810" width="110" height="50" as="geometry" />
        </mxCell>
        <mxCell id="b36G0uCOuv9IbHhVNSIA-21" style="edgeStyle=orthogonalEdgeStyle;rounded=0;orthogonalLoop=1;jettySize=auto;html=1;exitX=0.5;exitY=0;exitDx=0;exitDy=0;entryX=0.5;entryY=1;entryDx=0;entryDy=0;" parent="1" source="b36G0uCOuv9IbHhVNSIA-9" target="b36G0uCOuv9IbHhVNSIA-5" edge="1">
          <mxGeometry relative="1" as="geometry" />
        </mxCell>
        <mxCell id="b36G0uCOuv9IbHhVNSIA-9" value="&lt;font style=&quot;font-size: 18px&quot;&gt;BERT&lt;/font&gt;" style="rounded=1;whiteSpace=wrap;html=1;fillColor=#dae8fc;strokeColor=#6c8ebf;" parent="1" vertex="1">
          <mxGeometry x="531" y="810" width="110" height="50" as="geometry" />
        </mxCell>
        <mxCell id="b36G0uCOuv9IbHhVNSIA-22" style="edgeStyle=orthogonalEdgeStyle;rounded=0;orthogonalLoop=1;jettySize=auto;html=1;exitX=0.5;exitY=0;exitDx=0;exitDy=0;entryX=0.5;entryY=1;entryDx=0;entryDy=0;" parent="1" source="b36G0uCOuv9IbHhVNSIA-10" target="b36G0uCOuv9IbHhVNSIA-8" edge="1">
          <mxGeometry relative="1" as="geometry" />
        </mxCell>
        <mxCell id="b36G0uCOuv9IbHhVNSIA-10" value="&lt;font style=&quot;font-size: 18px&quot;&gt;C1, C2, ... , Cn&lt;/font&gt;" style="rounded=0;whiteSpace=wrap;html=1;fillColor=#f5f5f5;fontColor=#333333;strokeColor=#666666;" parent="1" vertex="1">
          <mxGeometry x="156" y="930" width="180" height="50" as="geometry" />
        </mxCell>
        <mxCell id="b36G0uCOuv9IbHhVNSIA-23" style="edgeStyle=orthogonalEdgeStyle;rounded=0;orthogonalLoop=1;jettySize=auto;html=1;exitX=0.5;exitY=0;exitDx=0;exitDy=0;entryX=0.5;entryY=1;entryDx=0;entryDy=0;" parent="1" source="b36G0uCOuv9IbHhVNSIA-11" target="b36G0uCOuv9IbHhVNSIA-9" edge="1">
          <mxGeometry relative="1" as="geometry" />
        </mxCell>
        <mxCell id="b36G0uCOuv9IbHhVNSIA-11" value="&lt;font style=&quot;font-size: 18px&quot;&gt;C1, C2, ... , Cn&lt;/font&gt;" style="rounded=0;whiteSpace=wrap;html=1;fillColor=#f5f5f5;fontColor=#333333;strokeColor=#666666;" parent="1" vertex="1">
          <mxGeometry x="496" y="930" width="180" height="50" as="geometry" />
        </mxCell>
        <mxCell id="b36G0uCOuv9IbHhVNSIA-15" style="edgeStyle=orthogonalEdgeStyle;rounded=0;orthogonalLoop=1;jettySize=auto;html=1;exitX=0.5;exitY=0;exitDx=0;exitDy=0;entryX=0.5;entryY=1;entryDx=0;entryDy=0;" parent="1" source="b36G0uCOuv9IbHhVNSIA-14" target="b36G0uCOuv9IbHhVNSIA-1" edge="1">
          <mxGeometry relative="1" as="geometry" />
        </mxCell>
        <mxCell id="b36G0uCOuv9IbHhVNSIA-16" style="edgeStyle=orthogonalEdgeStyle;rounded=0;orthogonalLoop=1;jettySize=auto;html=1;exitX=0.5;exitY=0;exitDx=0;exitDy=0;entryX=0.5;entryY=1;entryDx=0;entryDy=0;" parent="1" source="b36G0uCOuv9IbHhVNSIA-14" target="b36G0uCOuv9IbHhVNSIA-2" edge="1">
          <mxGeometry relative="1" as="geometry" />
        </mxCell>
        <mxCell id="b36G0uCOuv9IbHhVNSIA-14" value="&lt;font style=&quot;font-size: 18px&quot;&gt;Hidden Layer&lt;/font&gt;" style="rounded=1;whiteSpace=wrap;html=1;fillColor=#f5f5f5;fontColor=#333333;strokeColor=#666666;" parent="1" vertex="1">
          <mxGeometry x="311" y="390" width="210" height="50" as="geometry" />
        </mxCell>
        <mxCell id="b36G0uCOuv9IbHhVNSIA-29" style="edgeStyle=orthogonalEdgeStyle;rounded=0;orthogonalLoop=1;jettySize=auto;html=1;exitX=1;exitY=0.75;exitDx=0;exitDy=0;entryX=0;entryY=0.75;entryDx=0;entryDy=0;" parent="1" source="b36G0uCOuv9IbHhVNSIA-25" target="b36G0uCOuv9IbHhVNSIA-26" edge="1">
          <mxGeometry relative="1" as="geometry" />
        </mxCell>
        <mxCell id="b36G0uCOuv9IbHhVNSIA-25" value="" style="rounded=0;whiteSpace=wrap;html=1;fillColor=#fff2cc;strokeColor=#d6b656;" parent="1" vertex="1">
          <mxGeometry x="143.5" y="655" width="40" height="80" as="geometry" />
        </mxCell>
        <mxCell id="b36G0uCOuv9IbHhVNSIA-28" style="edgeStyle=orthogonalEdgeStyle;rounded=0;orthogonalLoop=1;jettySize=auto;html=1;exitX=0;exitY=0.25;exitDx=0;exitDy=0;entryX=1;entryY=0.25;entryDx=0;entryDy=0;" parent="1" source="b36G0uCOuv9IbHhVNSIA-26" target="b36G0uCOuv9IbHhVNSIA-25" edge="1">
          <mxGeometry relative="1" as="geometry" />
        </mxCell>
        <mxCell id="b36G0uCOuv9IbHhVNSIA-30" style="edgeStyle=orthogonalEdgeStyle;rounded=0;orthogonalLoop=1;jettySize=auto;html=1;exitX=1;exitY=0.25;exitDx=0;exitDy=0;entryX=0;entryY=0.25;entryDx=0;entryDy=0;" parent="1" source="b36G0uCOuv9IbHhVNSIA-26" target="b36G0uCOuv9IbHhVNSIA-27" edge="1">
          <mxGeometry relative="1" as="geometry" />
        </mxCell>
        <mxCell id="b36G0uCOuv9IbHhVNSIA-26" value="" style="rounded=0;whiteSpace=wrap;html=1;fillColor=#fff2cc;strokeColor=#d6b656;" parent="1" vertex="1">
          <mxGeometry x="223.5" y="655" width="40" height="80" as="geometry" />
        </mxCell>
        <mxCell id="b36G0uCOuv9IbHhVNSIA-31" style="edgeStyle=orthogonalEdgeStyle;rounded=0;orthogonalLoop=1;jettySize=auto;html=1;exitX=0;exitY=0.75;exitDx=0;exitDy=0;entryX=1;entryY=0.75;entryDx=0;entryDy=0;" parent="1" source="b36G0uCOuv9IbHhVNSIA-27" target="b36G0uCOuv9IbHhVNSIA-26" edge="1">
          <mxGeometry relative="1" as="geometry" />
        </mxCell>
        <mxCell id="b36G0uCOuv9IbHhVNSIA-27" value="" style="rounded=0;whiteSpace=wrap;html=1;fillColor=#fff2cc;strokeColor=#d6b656;" parent="1" vertex="1">
          <mxGeometry x="308.5" y="655" width="40" height="80" as="geometry" />
        </mxCell>
        <mxCell id="b36G0uCOuv9IbHhVNSIA-34" style="edgeStyle=orthogonalEdgeStyle;rounded=0;orthogonalLoop=1;jettySize=auto;html=1;exitX=1;exitY=0.75;exitDx=0;exitDy=0;entryX=0;entryY=0.75;entryDx=0;entryDy=0;" parent="1" source="b36G0uCOuv9IbHhVNSIA-35" target="b36G0uCOuv9IbHhVNSIA-38" edge="1">
          <mxGeometry relative="1" as="geometry" />
        </mxCell>
        <mxCell id="b36G0uCOuv9IbHhVNSIA-35" value="" style="rounded=0;whiteSpace=wrap;html=1;fillColor=#fff2cc;strokeColor=#d6b656;" parent="1" vertex="1">
          <mxGeometry x="483.5" y="655" width="40" height="80" as="geometry" />
        </mxCell>
        <mxCell id="b36G0uCOuv9IbHhVNSIA-36" style="edgeStyle=orthogonalEdgeStyle;rounded=0;orthogonalLoop=1;jettySize=auto;html=1;exitX=0;exitY=0.25;exitDx=0;exitDy=0;entryX=1;entryY=0.25;entryDx=0;entryDy=0;" parent="1" source="b36G0uCOuv9IbHhVNSIA-38" target="b36G0uCOuv9IbHhVNSIA-35" edge="1">
          <mxGeometry relative="1" as="geometry" />
        </mxCell>
        <mxCell id="b36G0uCOuv9IbHhVNSIA-37" style="edgeStyle=orthogonalEdgeStyle;rounded=0;orthogonalLoop=1;jettySize=auto;html=1;exitX=1;exitY=0.25;exitDx=0;exitDy=0;entryX=0;entryY=0.25;entryDx=0;entryDy=0;" parent="1" source="b36G0uCOuv9IbHhVNSIA-38" target="b36G0uCOuv9IbHhVNSIA-40" edge="1">
          <mxGeometry relative="1" as="geometry" />
        </mxCell>
        <mxCell id="b36G0uCOuv9IbHhVNSIA-38" value="" style="rounded=0;whiteSpace=wrap;html=1;fillColor=#fff2cc;strokeColor=#d6b656;" parent="1" vertex="1">
          <mxGeometry x="563.5" y="655" width="40" height="80" as="geometry" />
        </mxCell>
        <mxCell id="b36G0uCOuv9IbHhVNSIA-39" style="edgeStyle=orthogonalEdgeStyle;rounded=0;orthogonalLoop=1;jettySize=auto;html=1;exitX=0;exitY=0.75;exitDx=0;exitDy=0;entryX=1;entryY=0.75;entryDx=0;entryDy=0;" parent="1" source="b36G0uCOuv9IbHhVNSIA-40" target="b36G0uCOuv9IbHhVNSIA-38" edge="1">
          <mxGeometry relative="1" as="geometry" />
        </mxCell>
        <mxCell id="b36G0uCOuv9IbHhVNSIA-40" value="" style="rounded=0;whiteSpace=wrap;html=1;fillColor=#fff2cc;strokeColor=#d6b656;" parent="1" vertex="1">
          <mxGeometry x="648.5" y="655" width="40" height="80" as="geometry" />
        </mxCell>
        <mxCell id="b36G0uCOuv9IbHhVNSIA-41" value="&lt;font style=&quot;font-size: 18px&quot;&gt;BiLSTM&lt;/font&gt;" style="text;html=1;strokeColor=none;fillColor=none;align=center;verticalAlign=middle;whiteSpace=wrap;rounded=0;" parent="1" vertex="1">
          <mxGeometry x="216" y="620" width="60" height="30" as="geometry" />
        </mxCell>
        <mxCell id="b36G0uCOuv9IbHhVNSIA-42" value="&lt;font style=&quot;font-size: 18px&quot;&gt;BiLSTM&lt;/font&gt;" style="text;html=1;strokeColor=none;fillColor=none;align=center;verticalAlign=middle;whiteSpace=wrap;rounded=0;" parent="1" vertex="1">
          <mxGeometry x="553.5" y="620" width="60" height="30" as="geometry" />
        </mxCell>
      </root>
    </mxGraphModel>
  </diagram>
</mxfile>
